<svg xmlns="http://www.w3.org/2000/svg" xmlns:xlink="http://www.w3.org/1999/xlink" width="755" zoomAndPan="magnify" viewBox="0 0 567 850.499975" height="1133" preserveAspectRatio="xMidYMid meet" version="1.0"><defs><g/><clipPath id="cb9c07d69b"><path d="M 512 326 L 566.832031 326 L 566.832031 377 L 512 377 Z M 512 326 " clip-rule="nonzero"/></clipPath></defs><g fill="#9e718eff" fill-opacity="0.1216"><g transform="translate(30.352802, 449.613023)"><g><path d="M 72.433594 -4.191406 C 71.914062 -8.289062 70.570312 -11.09375 69.585938 -18.898438 C 67.859375 -32.558594 68.007812 -69.058594 62.777344 -75.933594 C 61.777344 -77.589844 59.894531 -78.347656 57.945312 -78.097656 C 56.578125 -77.925781 55.261719 -77.363281 54.1875 -76.433594 C 50.4375 -73.1875 47.6875 -65.105469 45.769531 -59.90625 C 35.460938 -30.054688 32.558594 8.179688 27.816406 41.296875 L 24.910156 55.9375 C 24.203125 58.207031 24.328125 59.183594 22.253906 60.039062 L 19.09375 50.722656 C 9.832031 19.773438 7.742188 -32.898438 8.242188 -61.910156 C 8.773438 -85.964844 9.558594 -100.144531 12.800781 -123.15625 C 13.476562 -127.207031 15.6875 -134.820312 10.222656 -134.128906 C 2.417969 -133.144531 0.199219 -72.195312 0.109375 -68.21875 C -0.121094 -55.894531 -0.175781 -43.792969 0.0078125 -31.328125 L 3.035156 8.339844 C 4.636719 21.027344 11.898438 69.082031 23.214844 67.652344 C 27.117188 67.160156 28.042969 65.058594 29.40625 61.714844 C 31.832031 52.683594 33.699219 43.921875 34.714844 34.675781 C 36.578125 22.742188 37.878906 9.492188 39.449219 -3.199219 C 41.425781 -20.5 46.507812 -52.464844 55.417969 -68.261719 C 56.5625 -70.191406 56.292969 -70.753906 58.5625 -71.632812 C 58.933594 -68.707031 59.542969 -67 59.742188 -65.4375 L 61.742188 -26.039062 C 62.242188 -17.378906 64.976562 4.285156 73.371094 3.226562 C 83.714844 1.917969 89.460938 -43.617188 91.671875 -52.816406 C 95.3125 -66.363281 96.859375 -77.660156 101.5 -92.71875 C 105.972656 -107.558594 108.472656 -116.003906 114.824219 -130.089844 C 117.109375 -135.535156 120.566406 -142.710938 125.320312 -145.890625 C 131.039062 -136.699219 127.785156 -87.117188 127.410156 -75.96875 C 126.34375 -49.859375 126.757812 -32.464844 126.738281 -7.480469 L 131.878906 80.296875 C 132.367188 82.613281 132.515625 83.785156 133.128906 87.078125 C 133.71875 90.175781 135.722656 91.90625 137.285156 91.710938 C 138.648438 91.535156 139.820312 89.804688 139.375 86.289062 C 138.464844 79.070312 137.132812 70.117188 136.832031 63.019531 C 136.40625 34.519531 134.347656 7.222656 134.992188 -22.203125 L 136.914062 -104.332031 C 137.050781 -111.089844 139.652344 -154.839844 124.433594 -152.914062 C 110.769531 -151.191406 95.179688 -94.101562 92.386719 -83.242188 C 87.097656 -62.351562 83.949219 -43.316406 78.972656 -23.058594 C 78.027344 -17.984375 75.675781 -6.78125 72.433594 -4.191406 Z M 72.433594 -4.191406 "/></g></g></g><g fill="#9e718eff" fill-opacity="0.1216"><g transform="translate(183.350895, 430.290848)"><g><path d="M -2.488281 -19.710938 C -1.601562 -12.683594 -0.597656 -9.441406 6.625 -10.351562 C 12.28125 -11.066406 16.015625 -30.175781 19.402344 -33.183594 C 20.464844 -24.789062 27.988281 -15.429688 37.746094 -16.664062 C 41.066406 -17.082031 44.625 -18.722656 48.183594 -21.945312 L 53.445312 -27.371094 C 62.191406 -38.1875 60.40625 -42.921875 57.476562 -42.550781 C 56.304688 -42.402344 55.015625 -41.644531 54.210938 -40.15625 C 51.847656 -36.882812 51.484375 -35.050781 48.195312 -31.265625 C 44.445312 -26.429688 40.640625 -23.570312 36.933594 -23.101562 C 32.835938 -22.585938 28.929688 -25.265625 26.480469 -32.09375 C 23.789062 -39.285156 25.996094 -48.488281 19.164062 -47.625 C 16.628906 -47.304688 10.722656 -29.707031 7.582031 -23.164062 L 6.316406 -20.625 C 5.488281 -19.332031 5.976562 -20.183594 5.464844 -19.527344 C 4.652344 -25.964844 6.445312 -33.726562 8.464844 -38.144531 C 12.894531 -48.617188 16.453125 -51.84375 19.378906 -52.210938 C 23.085938 -52.679688 25.996094 -48.488281 28.726562 -48.832031 C 33.800781 -49.472656 27.324219 -59.957031 18.152344 -58.796875 C 4.488281 -57.074219 -3.894531 -30.835938 -2.488281 -19.710938 Z M -2.488281 -19.710938 "/></g></g></g><g fill="9e718eff" fill-opacity="0.1216"><g transform="translate(243.652559, 422.675326)"><g><path d="M 2.632812 -1.125 C 8.683594 -1.890625 5.503906 -8.230469 6.035156 -13.449219 C 6.222656 -18.234375 7.484375 -22.359375 9.019531 -25.921875 C 11.5 -31.390625 12.476562 -31.515625 19.890625 -32.449219 C 22.039062 -32.722656 24.992188 -32.894531 27.527344 -33.214844 C 31.429688 -33.710938 34.503906 -34.496094 34.160156 -37.226562 C 33.839844 -39.761719 27.738281 -39.390625 22.082031 -38.675781 C 18.761719 -38.257812 15.46875 -37.640625 13.714844 -37.421875 C 7.664062 -36.65625 6.960938 -32.800781 4.28125 -30.480469 C 3.960938 -33.015625 4.375 -32.871094 4.027344 -35.601562 C 3.78125 -37.554688 3.488281 -39.894531 3.4375 -41.871094 C 3.332031 -47.410156 3.839844 -51.242188 -1.429688 -50.574219 C -5.722656 -50.035156 -3.550781 -29.6875 -3.109375 -26.175781 C -2.296875 -21.320312 -1.875 -16.417969 -1.089844 -11.757812 C -0.914062 -10.390625 -1.269531 -0.632812 2.632812 -1.125 Z M 2.632812 -1.125 "/></g></g></g><g fill="9e718eff" fill-opacity="0.1216"><g transform="translate(279.17012, 418.1898)"><g><path d="M 15.542969 77.542969 C 12.421875 77.9375 9.148438 77.160156 7.34375 75.40625 C -1.523438 68 4.285156 51.207031 8.132812 43.980469 C 12.074219 35.949219 15.992188 29.304688 21.449219 22.273438 C 22.839844 20.710938 23.421875 19.050781 24.46875 17.925781 L 41.449219 -1.46875 C 42.863281 -2.835938 43.9375 -3.765625 45.375 -4.9375 C 45.925781 7.285156 41.3125 42.960938 36.8125 54.433594 C 33.1875 63.417969 26.667969 76.136719 15.542969 77.542969 Z M 7.980469 -18.457031 C 5.613281 -37.191406 15.476562 -51.71875 6.890625 -50.636719 C 0.449219 -49.820312 -1.769531 -29.714844 -0.710938 -21.324219 C 0.152344 -14.492188 3.816406 -10.59375 8.109375 -11.136719 C 10.257812 -11.40625 12.449219 -12.875 14.523438 -15.316406 C 19.175781 -20.859375 23.96875 -31.578125 27.082031 -38.316406 C 29.636719 -43.199219 41.046875 -70.613281 42.65625 -72.003906 C 45.488281 -49.5625 45.40625 -36.070312 45.582031 -15.867188 C 45.828125 -12.332031 44.074219 -12.109375 40.953125 -8.542969 C 39.539062 -7.175781 38.808594 -6.6875 37.589844 -5.34375 C 22.140625 8.902344 -5.382812 45.289062 -2.671875 66.757812 C -1.195312 78.464844 7.085938 84.359375 16.648438 83.152344 C 29.527344 81.527344 39.171875 68.410156 43.476562 56.964844 C 51.066406 40.144531 53.761719 9.667969 54.054688 -10 C 54.097656 -12.78125 53.660156 -13.121094 55.4375 -14.734375 C 62.382812 -20.964844 69.746094 -27.046875 77.179688 -32.546875 C 79.347656 -34.210938 91.023438 -42.226562 90.65625 -45.15625 C 90.457031 -46.714844 89.605469 -47.203125 88.628906 -47.078125 C 85.699219 -46.710938 80.949219 -41.945312 79.875 -41.015625 L 54.015625 -21.296875 C 53.324219 -26.757812 53.480469 -39.667969 52.246094 -49.425781 L 50.347656 -64.449219 C 49.855469 -68.355469 48.226562 -82.820312 44.128906 -82.300781 C 40.03125 -81.785156 40.203125 -80.417969 37.722656 -74.949219 C 32.347656 -62.574219 17.292969 -24.785156 7.980469 -18.457031 Z M 7.980469 -18.457031 "/></g></g></g><g fill="9e718eff" fill-opacity="0.1216"><g transform="translate(370.695847, 406.630982)"><g><path d="M -1.507812 -15.078125 C 0.09375 -2.390625 3.515625 21.5625 14.054688 20.234375 C 18.933594 19.617188 21.703125 11.730469 23.433594 8.144531 C 26.8125 0.378906 30.359375 -13.945312 33.398438 -22.855469 C 34.125 -24.929688 38.746094 -37.011719 38.597656 -38.183594 C 38.476562 -39.160156 37.546875 -40.230469 36.570312 -40.109375 C 35.59375 -39.984375 34.523438 -39.058594 33.648438 -36.566406 C 28.808594 -24.65625 24.875 -10.277344 20.449219 1.78125 C 18.867188 6.539062 16.800781 12.152344 12.804688 15.039062 C 1.902344 -0.636719 5.164062 -62.710938 8.140625 -83.109375 C 8.480469 -85.136719 12.125 -97.097656 5.683594 -96.28125 C 0.609375 -95.640625 0.0859375 -85.664062 -0.957031 -79.78125 C -3.566406 -61.210938 -3.949219 -34.398438 -1.507812 -15.078125 Z M -1.507812 -15.078125 "/></g></g></g><g fill="9e718eff" fill-opacity="0.1216"><g transform="translate(408.750356, 401.825076)"><g><path d="M 16.296875 -1.265625 C 25.46875 -2.421875 31.800781 -11.945312 35.867188 -17.417969 C 38.597656 -20.933594 48.652344 -35.488281 48.1875 -39.195312 C 47.964844 -40.953125 47.304688 -41.464844 46.523438 -41.367188 C 42.816406 -40.898438 34.222656 -25.734375 33.566406 -24.660156 C 31.105469 -20.582031 22.265625 -8.957031 16.019531 -8.167969 C 10.75 -7.503906 7.148438 -18.746094 6.410156 -24.601562 C 3.894531 -44.507812 10.59375 -54.273438 1.617188 -53.140625 C -2.289062 -52.648438 -3.128906 -43.621094 -3.199219 -39.449219 C -4.085938 -29.222656 -1.996094 -15.808594 3.796875 -7.617188 C 6.410156 -4.179688 11.027344 -0.597656 16.296875 -1.265625 Z M 0.265625 -77.953125 C 0.808594 -73.660156 3.59375 -72.027344 6.324219 -72.375 C 10.226562 -72.867188 13.785156 -77.675781 9.164062 -84.429688 C 7.722656 -86.429688 6.257812 -87.035156 4.890625 -86.863281 C 1.964844 -86.496094 -0.300781 -82.441406 0.265625 -77.953125 Z M 0.265625 -77.953125 "/></g></g></g><g fill="9e718eff" fill-opacity="0.1216"><g transform="translate(456.952726, 395.73757)"><g><path d="M 4.183594 -10.839844 C 11.792969 -11.800781 16.445312 -37.765625 22.34375 -42.871094 C 24.566406 -39.386719 22.820312 -31.234375 28.203125 -20.019531 C 30.625 -14.96875 34.609375 -10.121094 40.65625 -10.882812 C 41.828125 -11.03125 42.976562 -11.375 44.292969 -11.9375 C 48.632812 -13.675781 53.890625 -22.269531 56.179688 -26.128906 C 57.152344 -27.835938 66.84375 -43.734375 59.234375 -42.773438 C 55.71875 -42.328125 48.308594 -17.800781 40.503906 -16.8125 C 33.285156 -15.902344 30.699219 -33.21875 30.082031 -38.097656 L 27.53125 -48.878906 C 26.285156 -50.902344 24.796875 -51.707031 23.429688 -51.535156 C 18.746094 -50.941406 14.148438 -40.25 13.25 -37.957031 L 5.679688 -22.527344 C 3.757812 -37.75 14.125 -57.695312 5.539062 -56.609375 C -1.875 -55.675781 -8.308594 -9.261719 4.183594 -10.839844 Z M 4.183594 -10.839844 "/></g></g></g><g clip-path="url(#cb9c07d69b)"><g fill="9e718eff" fill-opacity="0.1216"><g transform="translate(519.205844, 387.875603)"><g><path d="M 4.515625 -36.457031 C 5.265625 -41.507812 10.746094 -49.933594 15.890625 -51.574219 C 16.09375 -45.253906 9.074219 -39.609375 4.515625 -36.457031 Z M -3.675781 -30.664062 C -2.984375 -25.199219 -2.5625 -20.296875 2.710938 -16.203125 C 6.449219 -13.304688 10.523438 -12.433594 14.621094 -12.949219 C 26.527344 -14.453125 38.488281 -28.058594 44.796875 -36.191406 C 46.285156 -38.558594 46.257812 -38.753906 45.304688 -41.609375 C 39.449219 -40.867188 42.671875 -40.480469 35.457031 -33.226562 C 34.214844 -32.078125 33.726562 -31.222656 32.3125 -29.855469 C 28.78125 -26.433594 21.300781 -19.742188 14.46875 -18.878906 C 12.125 -18.582031 9.6875 -19.066406 7.707031 -20.601562 C 3.972656 -23.5 3.96875 -26.671875 3.449219 -30.769531 C 9.449219 -31.925781 15.761719 -38.472656 18.441406 -42.378906 C 23.527344 -50.753906 22.542969 -58.558594 13.957031 -57.476562 C 4.589844 -56.292969 -4.90625 -40.421875 -3.675781 -30.664062 Z M -3.675781 -30.664062 "/></g></g></g></g><g fill="#242323" fill-opacity="1"><g transform="translate(20.63858, 442.077316)"><g><path d="M 72.433594 -4.191406 C 71.914062 -8.289062 70.570312 -11.09375 69.585938 -18.898438 C 67.859375 -32.558594 68.007812 -69.058594 62.777344 -75.933594 C 61.777344 -77.589844 59.894531 -78.347656 57.945312 -78.097656 C 56.578125 -77.925781 55.261719 -77.363281 54.1875 -76.433594 C 50.4375 -73.1875 47.6875 -65.105469 45.769531 -59.90625 C 35.460938 -30.054688 32.558594 8.179688 27.816406 41.296875 L 24.910156 55.9375 C 24.203125 58.207031 24.328125 59.183594 22.253906 60.039062 L 19.09375 50.722656 C 9.832031 19.773438 7.742188 -32.898438 8.242188 -61.910156 C 8.773438 -85.964844 9.558594 -100.144531 12.800781 -123.15625 C 13.476562 -127.207031 15.6875 -134.820312 10.222656 -134.128906 C 2.417969 -133.144531 0.199219 -72.195312 0.109375 -68.21875 C -0.121094 -55.894531 -0.175781 -43.792969 0.0078125 -31.328125 L 3.035156 8.339844 C 4.636719 21.027344 11.898438 69.082031 23.214844 67.652344 C 27.117188 67.160156 28.042969 65.058594 29.40625 61.714844 C 31.832031 52.683594 33.699219 43.921875 34.714844 34.675781 C 36.578125 22.742188 37.878906 9.492188 39.449219 -3.199219 C 41.425781 -20.5 46.507812 -52.464844 55.417969 -68.261719 C 56.5625 -70.191406 56.292969 -70.753906 58.5625 -71.632812 C 58.933594 -68.707031 59.542969 -67 59.742188 -65.4375 L 61.742188 -26.039062 C 62.242188 -17.378906 64.976562 4.285156 73.371094 3.226562 C 83.714844 1.917969 89.460938 -43.617188 91.671875 -52.816406 C 95.3125 -66.363281 96.859375 -77.660156 101.5 -92.71875 C 105.972656 -107.558594 108.472656 -116.003906 114.824219 -130.089844 C 117.109375 -135.535156 120.566406 -142.710938 125.320312 -145.890625 C 131.039062 -136.699219 127.785156 -87.117188 127.410156 -75.96875 C 126.34375 -49.859375 126.757812 -32.464844 126.738281 -7.480469 L 131.878906 80.296875 C 132.367188 82.613281 132.515625 83.785156 133.128906 87.078125 C 133.71875 90.175781 135.722656 91.90625 137.285156 91.710938 C 138.648438 91.535156 139.820312 89.804688 139.375 86.289062 C 138.464844 79.070312 137.132812 70.117188 136.832031 63.019531 C 136.40625 34.519531 134.347656 7.222656 134.992188 -22.203125 L 136.914062 -104.332031 C 137.050781 -111.089844 139.652344 -154.839844 124.433594 -152.914062 C 110.769531 -151.191406 95.179688 -94.101562 92.386719 -83.242188 C 87.097656 -62.351562 83.949219 -43.316406 78.972656 -23.058594 C 78.027344 -17.984375 75.675781 -6.78125 72.433594 -4.191406 Z M 72.433594 -4.191406 "/></g></g></g><g fill="#242323" fill-opacity="1"><g transform="translate(173.636681, 422.755144)"><g><path d="M -2.488281 -19.710938 C -1.601562 -12.683594 -0.597656 -9.441406 6.625 -10.351562 C 12.28125 -11.066406 16.015625 -30.175781 19.402344 -33.183594 C 20.464844 -24.789062 27.988281 -15.429688 37.746094 -16.664062 C 41.066406 -17.082031 44.625 -18.722656 48.183594 -21.945312 L 53.445312 -27.371094 C 62.191406 -38.1875 60.40625 -42.921875 57.476562 -42.550781 C 56.304688 -42.402344 55.015625 -41.644531 54.210938 -40.15625 C 51.847656 -36.882812 51.484375 -35.050781 48.195312 -31.265625 C 44.445312 -26.429688 40.640625 -23.570312 36.933594 -23.101562 C 32.835938 -22.585938 28.929688 -25.265625 26.480469 -32.09375 C 23.789062 -39.285156 25.996094 -48.488281 19.164062 -47.625 C 16.628906 -47.304688 10.722656 -29.707031 7.582031 -23.164062 L 6.316406 -20.625 C 5.488281 -19.332031 5.976562 -20.183594 5.464844 -19.527344 C 4.652344 -25.964844 6.445312 -33.726562 8.464844 -38.144531 C 12.894531 -48.617188 16.453125 -51.84375 19.378906 -52.210938 C 23.085938 -52.679688 25.996094 -48.488281 28.726562 -48.832031 C 33.800781 -49.472656 27.324219 -59.957031 18.152344 -58.796875 C 4.488281 -57.074219 -3.894531 -30.835938 -2.488281 -19.710938 Z M -2.488281 -19.710938 "/></g></g></g><g fill="#242323" fill-opacity="1"><g transform="translate(233.938316, 415.139621)"><g><path d="M 2.632812 -1.125 C 8.683594 -1.890625 5.503906 -8.230469 6.035156 -13.449219 C 6.222656 -18.234375 7.484375 -22.359375 9.019531 -25.921875 C 11.5 -31.390625 12.476562 -31.515625 19.890625 -32.449219 C 22.039062 -32.722656 24.992188 -32.894531 27.527344 -33.214844 C 31.429688 -33.710938 34.503906 -34.496094 34.160156 -37.226562 C 33.839844 -39.761719 27.738281 -39.390625 22.082031 -38.675781 C 18.761719 -38.257812 15.46875 -37.640625 13.714844 -37.421875 C 7.664062 -36.65625 6.960938 -32.800781 4.28125 -30.480469 C 3.960938 -33.015625 4.375 -32.871094 4.027344 -35.601562 C 3.78125 -37.554688 3.488281 -39.894531 3.4375 -41.871094 C 3.332031 -47.410156 3.839844 -51.242188 -1.429688 -50.574219 C -5.722656 -50.035156 -3.550781 -29.6875 -3.109375 -26.175781 C -2.296875 -21.320312 -1.875 -16.417969 -1.089844 -11.757812 C -0.914062 -10.390625 -1.269531 -0.632812 2.632812 -1.125 Z M 2.632812 -1.125 "/></g></g></g><g fill="#242323" fill-opacity="1"><g transform="translate(269.455889, 410.654093)"><g><path d="M 15.542969 77.542969 C 12.421875 77.9375 9.148438 77.160156 7.34375 75.40625 C -1.523438 68 4.285156 51.207031 8.132812 43.980469 C 12.074219 35.949219 15.992188 29.304688 21.449219 22.273438 C 22.839844 20.710938 23.421875 19.050781 24.46875 17.925781 L 41.449219 -1.46875 C 42.863281 -2.835938 43.9375 -3.765625 45.375 -4.9375 C 45.925781 7.285156 41.3125 42.960938 36.8125 54.433594 C 33.1875 63.417969 26.667969 76.136719 15.542969 77.542969 Z M 7.980469 -18.457031 C 5.613281 -37.191406 15.476562 -51.71875 6.890625 -50.636719 C 0.449219 -49.820312 -1.769531 -29.714844 -0.710938 -21.324219 C 0.152344 -14.492188 3.816406 -10.59375 8.109375 -11.136719 C 10.257812 -11.40625 12.449219 -12.875 14.523438 -15.316406 C 19.175781 -20.859375 23.96875 -31.578125 27.082031 -38.316406 C 29.636719 -43.199219 41.046875 -70.613281 42.65625 -72.003906 C 45.488281 -49.5625 45.40625 -36.070312 45.582031 -15.867188 C 45.828125 -12.332031 44.074219 -12.109375 40.953125 -8.542969 C 39.539062 -7.175781 38.808594 -6.6875 37.589844 -5.34375 C 22.140625 8.902344 -5.382812 45.289062 -2.671875 66.757812 C -1.195312 78.464844 7.085938 84.359375 16.648438 83.152344 C 29.527344 81.527344 39.171875 68.410156 43.476562 56.964844 C 51.066406 40.144531 53.761719 9.667969 54.054688 -10 C 54.097656 -12.78125 53.660156 -13.121094 55.4375 -14.734375 C 62.382812 -20.964844 69.746094 -27.046875 77.179688 -32.546875 C 79.347656 -34.210938 91.023438 -42.226562 90.65625 -45.15625 C 90.457031 -46.714844 89.605469 -47.203125 88.628906 -47.078125 C 85.699219 -46.710938 80.949219 -41.945312 79.875 -41.015625 L 54.015625 -21.296875 C 53.324219 -26.757812 53.480469 -39.667969 52.246094 -49.425781 L 50.347656 -64.449219 C 49.855469 -68.355469 48.226562 -82.820312 44.128906 -82.300781 C 40.03125 -81.785156 40.203125 -80.417969 37.722656 -74.949219 C 32.347656 -62.574219 17.292969 -24.785156 7.980469 -18.457031 Z M 7.980469 -18.457031 "/></g></g></g><g fill="#242323" fill-opacity="1"><g transform="translate(360.981616, 399.095275)"><g><path d="M -1.507812 -15.078125 C 0.09375 -2.390625 3.515625 21.5625 14.054688 20.234375 C 18.933594 19.617188 21.703125 11.730469 23.433594 8.144531 C 26.8125 0.378906 30.359375 -13.945312 33.398438 -22.855469 C 34.125 -24.929688 38.746094 -37.011719 38.597656 -38.183594 C 38.476562 -39.160156 37.546875 -40.230469 36.570312 -40.109375 C 35.59375 -39.984375 34.523438 -39.058594 33.648438 -36.566406 C 28.808594 -24.65625 24.875 -10.277344 20.449219 1.78125 C 18.867188 6.539062 16.800781 12.152344 12.804688 15.039062 C 1.902344 -0.636719 5.164062 -62.710938 8.140625 -83.109375 C 8.480469 -85.136719 12.125 -97.097656 5.683594 -96.28125 C 0.609375 -95.640625 0.0859375 -85.664062 -0.957031 -79.78125 C -3.566406 -61.210938 -3.949219 -34.398438 -1.507812 -15.078125 Z M -1.507812 -15.078125 "/></g></g></g><g fill="#242323" fill-opacity="1"><g transform="translate(399.036127, 394.289369)"><g><path d="M 16.296875 -1.265625 C 25.46875 -2.421875 31.800781 -11.945312 35.867188 -17.417969 C 38.597656 -20.933594 48.652344 -35.488281 48.1875 -39.195312 C 47.964844 -40.953125 47.304688 -41.464844 46.523438 -41.367188 C 42.816406 -40.898438 34.222656 -25.734375 33.566406 -24.660156 C 31.105469 -20.582031 22.265625 -8.957031 16.019531 -8.167969 C 10.75 -7.503906 7.148438 -18.746094 6.410156 -24.601562 C 3.894531 -44.507812 10.59375 -54.273438 1.617188 -53.140625 C -2.289062 -52.648438 -3.128906 -43.621094 -3.199219 -39.449219 C -4.085938 -29.222656 -1.996094 -15.808594 3.796875 -7.617188 C 6.410156 -4.179688 11.027344 -0.597656 16.296875 -1.265625 Z M 0.265625 -77.953125 C 0.808594 -73.660156 3.59375 -72.027344 6.324219 -72.375 C 10.226562 -72.867188 13.785156 -77.675781 9.164062 -84.429688 C 7.722656 -86.429688 6.257812 -87.035156 4.890625 -86.863281 C 1.964844 -86.496094 -0.300781 -82.441406 0.265625 -77.953125 Z M 0.265625 -77.953125 "/></g></g></g><g fill="#242323" fill-opacity="1"><g transform="translate(447.238462, 388.201866)"><g><path d="M 4.183594 -10.839844 C 11.792969 -11.800781 16.445312 -37.765625 22.34375 -42.871094 C 24.566406 -39.386719 22.820312 -31.234375 28.203125 -20.019531 C 30.625 -14.96875 34.609375 -10.121094 40.65625 -10.882812 C 41.828125 -11.03125 42.976562 -11.375 44.292969 -11.9375 C 48.632812 -13.675781 53.890625 -22.269531 56.179688 -26.128906 C 57.152344 -27.835938 66.84375 -43.734375 59.234375 -42.773438 C 55.71875 -42.328125 48.308594 -17.800781 40.503906 -16.8125 C 33.285156 -15.902344 30.699219 -33.21875 30.082031 -38.097656 L 27.53125 -48.878906 C 26.285156 -50.902344 24.796875 -51.707031 23.429688 -51.535156 C 18.746094 -50.941406 14.148438 -40.25 13.25 -37.957031 L 5.679688 -22.527344 C 3.757812 -37.75 14.125 -57.695312 5.539062 -56.609375 C -1.875 -55.675781 -8.308594 -9.261719 4.183594 -10.839844 Z M 4.183594 -10.839844 "/></g></g></g><g fill="#242323" fill-opacity="1"><g transform="translate(509.491628, 380.339896)"><g><path d="M 4.515625 -36.457031 C 5.265625 -41.507812 10.746094 -49.933594 15.890625 -51.574219 C 16.09375 -45.253906 9.074219 -39.609375 4.515625 -36.457031 Z M -3.675781 -30.664062 C -2.984375 -25.199219 -2.5625 -20.296875 2.710938 -16.203125 C 6.449219 -13.304688 10.523438 -12.433594 14.621094 -12.949219 C 26.527344 -14.453125 38.488281 -28.058594 44.796875 -36.191406 C 46.285156 -38.558594 46.257812 -38.753906 45.304688 -41.609375 C 39.449219 -40.867188 42.671875 -40.480469 35.457031 -33.226562 C 34.214844 -32.078125 33.726562 -31.222656 32.3125 -29.855469 C 28.78125 -26.433594 21.300781 -19.742188 14.46875 -18.878906 C 12.125 -18.582031 9.6875 -19.066406 7.707031 -20.601562 C 3.972656 -23.5 3.96875 -26.671875 3.449219 -30.769531 C 9.449219 -31.925781 15.761719 -38.472656 18.441406 -42.378906 C 23.527344 -50.753906 22.542969 -58.558594 13.957031 -57.476562 C 4.589844 -56.292969 -4.90625 -40.421875 -3.675781 -30.664062 Z M -3.675781 -30.664062 "/></g></g></g></svg>