<svg xmlns="http://www.w3.org/2000/svg" viewBox="0 0 96 120" x="0px" y="0px"><g data-name="1"><path d="M60.6,48,87.3,24.78a7.38,7.38,0,0,1,1.12,3.92V67.3a7.38,7.38,0,0,1-1.12,3.92ZM48,55,85.25,22.59a7.43,7.43,0,0,0-4.33-1.39H15.08a7.43,7.43,0,0,0-4.33,1.39ZM8.7,24.78A7.38,7.38,0,0,0,7.58,28.7V67.3A7.38,7.38,0,0,0,8.7,71.22L35.4,48ZM58.31,50,49,58.1a1.48,1.48,0,0,1-2,0L37.69,50,10.75,73.41a7.43,7.43,0,0,0,4.33,1.39H80.92a7.43,7.43,0,0,0,4.33-1.39Z"/></g><text x="0" y="111" fill="#000000" font-size="5px" font-weight="bold" font-family="'Helvetica Neue', Helvetica, Arial-Unicode, Arial, Sans-serif">Created by Kesya Sams</text><text x="0" y="116" fill="#000000" font-size="5px" font-weight="bold" font-family="'Helvetica Neue', Helvetica, Arial-Unicode, Arial, Sans-serif">from the Noun Project</text></svg>